<svg width="41" height="41" viewBox="0 0 41 41" fill="none" xmlns="http://www.w3.org/2000/svg">
<path d="M8.73734 32.6688V27.1937C8.73734 25.375 10.1623 23.7437 12.1873 23.7437C14.0061 23.7437 15.6373 25.1687 15.6373 27.1937V32.4625C15.6373 36.1187 12.5998 39.1563 8.94359 39.1563C5.28734 39.1563 2.24984 36.1 2.24984 32.4625V20.9125C2.04359 10.375 10.3686 1.84375 20.9061 1.84375C31.4436 1.84375 39.7498 10.375 39.7498 20.7062V32.2563C39.7498 35.9125 36.7123 38.95 33.0561 38.95C29.3998 38.95 26.3623 35.9125 26.3623 32.2563V26.9875C26.3623 25.1687 27.7873 23.5375 29.8123 23.5375C31.6311 23.5375 33.2623 24.9625 33.2623 26.9875V32.6688" stroke="#EDA415" stroke-width="2.5" stroke-linecap="round" stroke-linejoin="round"/>
</svg>
